<?xml version="1.0" encoding="UTF-8"?>
<svg id="Layer_2" width="21px" height="17px" data-name="Layer 2" xmlns="http://www.w3.org/2000/svg" viewBox="0 0 21 17">
  <defs>
    <style>
      .cls-1 {
        fill: #fff;
        fill-rule: evenodd;
      }
    </style>
  </defs>
  <g id="Layer_1-2" data-name="Layer 1">
    <path class="cls-1" d="M6.33,1.19c1.86-.75,2.97-1.19,4.34-1.19s2.48.44,4.34,1.19c.04.02.08.03.11.05l2.83,1.13c.95.38,1.71.69,2.24.96.27.14.52.3.72.49.2.2.41.49.41.89s-.21.7-.41.89c-.2.19-.46.35-.72.49-.35.18-.8.38-1.35.6.54.22,1,.42,1.35.6.27.14.52.3.72.49.2.2.41.49.41.89s-.21.7-.41.89c-.2.19-.46.35-.72.49-.35.18-.8.38-1.35.6.54.22,1,.42,1.35.6.27.14.52.3.72.49.2.2.41.49.41.89s-.21.7-.41.89c-.2.19-.46.35-.72.49-.53.28-1.29.58-2.24.96l-2.83,1.13s-.08.03-.11.05c-1.86.75-2.97,1.19-4.34,1.19s-2.48-.44-4.34-1.19c-.04-.02-.08-.03-.11-.05l-2.83-1.13c-.95-.38-1.71-.69-2.24-.96-.27-.14-.52-.3-.72-.49-.2-.2-.41-.49-.41-.89s.21-.7.41-.89c.2-.19.46-.35.72-.49.35-.18.8-.38,1.35-.6-.54-.22-1-.42-1.35-.6-.27-.14-.52-.3-.72-.49-.2-.2-.41-.49-.41-.89s.21-.7.41-.89c.2-.19.46-.35.72-.49.35-.18.8-.38,1.35-.6-.54-.22-1-.42-1.35-.6-.27-.14-.52-.3-.72-.49-.2-.2-.41-.49-.41-.89s.21-.7.41-.89c.2-.19.46-.35.72-.49.53-.28,1.29-.58,2.24-.96l2.83-1.13s.08-.03.11-.05ZM4.48,7.5l-.5.2c-1,.4-1.7.68-2.15.92-.04.02-.08.04-.12.06.04.02.08.04.12.06.45.24,1.15.51,2.15.92l2.79,1.11c2.01.8,2.85,1.13,3.9,1.13s1.89-.33,3.9-1.13l2.79-1.11c1-.4,1.7-.68,2.15-.92.04-.02.08-.04.12-.06-.04-.02-.08-.04-.12-.06-.45-.24-1.15-.52-2.15-.92l-.5-.2-1.73.69s-.08.03-.11.05c-1.86.75-2.97,1.19-4.34,1.19s-2.48-.44-4.34-1.19c-.04-.02-.08-.03-.11-.05l-1.73-.69ZM4.48,11.47l-.5.2c-1,.4-1.7.68-2.15.92-.04.02-.08.04-.12.06.04.02.08.04.12.06.45.24,1.15.51,2.15.92l2.79,1.11c2.01.8,2.85,1.13,3.9,1.13s1.89-.33,3.9-1.13l2.79-1.11c1-.4,1.7-.68,2.15-.92.04-.02.08-.04.12-.06-.04-.02-.08-.04-.12-.06-.45-.24-1.15-.52-2.15-.92l-.5-.2-1.73.69s-.08.03-.11.05c-1.86.75-2.97,1.19-4.34,1.19s-2.48-.44-4.34-1.19c-.04-.02-.08-.03-.11-.05l-1.73-.69Z"/>
  </g>
</svg>